<svg width="17" height="16" viewBox="0 0 17 16" fill="none" xmlns="http://www.w3.org/2000/svg">
<path d="M13.3495 15.6068C12.6007 15.4541 12.0882 14.7586 11.7964 14.0408L12.1924 14.0408C12.3613 14.0408 12.5285 14.0374 12.6938 14.0297C12.8654 14.3907 13.126 14.7031 13.5151 14.7655C13.6352 14.6587 13.7896 14.5919 13.961 14.5919C14.3392 14.5919 14.6457 14.9071 14.6457 15.2959C14.6457 15.6848 14.3391 16 13.961 16C13.6918 16 13.4613 15.8389 13.3495 15.6068Z" fill="#2B2B2B"/>
<path d="M2.66949 15.9999C2.29129 15.9999 1.98476 15.6847 1.98476 15.2959C1.98476 14.9071 2.29132 14.5918 2.66949 14.5918C2.82055 14.5918 2.95907 14.6437 3.07217 14.7291C3.40436 14.6153 3.64293 14.3153 3.80876 13.9812C4.06234 14.0265 4.28782 14.0408 4.45697 14.0408L4.50183 14.0408L4.52776 14.0408L4.75488 14.0408C4.51579 14.7156 4.07321 15.3709 3.29821 15.5738C3.19344 15.8243 2.95152 15.9999 2.66949 15.9999Z" fill="#2B2B2B"/>
<path d="M3.79145 2.56089L5.19102 1.12158C5.44796 1.18892 6.23583 1.71131 6.47131 1.96404L4.60885 3.87903C4.36471 3.63888 3.86197 2.83682 3.79145 2.56089Z" fill="#2B2B2B"/>
<path d="M6.45072 3.09993C6.41502 3.09993 6.37938 3.08588 6.35204 3.0581L6.155 2.8555C6.14247 2.84262 6.13381 2.82773 6.12714 2.81223C6.10429 2.75952 6.11321 2.69618 6.155 2.65294C6.19682 2.60967 6.25869 2.60077 6.30996 2.62426C6.325 2.63112 6.33951 2.64032 6.35201 2.65294L6.54934 2.85523C6.60367 2.91112 6.60367 3.00195 6.54934 3.05783C6.52207 3.08588 6.48639 3.09993 6.45072 3.09993Z" fill="#2B2B2B"/>
<path d="M7.04135 3.70757C7.00568 3.70757 6.97003 3.69355 6.9427 3.66574L6.74565 3.46314C6.69133 3.40725 6.69133 3.31643 6.74565 3.26054C6.79998 3.20466 6.88834 3.20466 6.9427 3.26054L7.13974 3.46314C7.19406 3.51903 7.19406 3.60985 7.13974 3.66574C7.11243 3.69382 7.07705 3.70757 7.04135 3.70757Z" fill="#2B2B2B"/>
<path d="M7.63363 4.31545C7.59796 4.31545 7.56229 4.3014 7.53498 4.27362L7.33794 4.07105C7.28359 4.01516 7.28359 3.92434 7.33794 3.86845C7.39226 3.81257 7.48063 3.81257 7.53498 3.86845L7.73202 4.07105C7.78635 4.12691 7.78635 4.21776 7.73202 4.27362C7.70498 4.3014 7.66928 4.31545 7.63363 4.31545Z" fill="#2B2B2B"/>
<path d="M5.7344 3.21717C5.71155 3.16443 5.72021 3.10081 5.76226 3.05784C5.80435 3.01457 5.86596 3.00567 5.91722 3.02917C5.93226 3.03603 5.94674 3.04523 5.95928 3.05784L6.15632 3.26071C6.21067 3.3166 6.21067 3.40742 6.15632 3.46331C6.12898 3.49142 6.09334 3.50514 6.05767 3.50514C6.02196 3.50514 5.98632 3.49109 5.95898 3.46331L5.76194 3.26044C5.74976 3.24783 5.74111 3.23293 5.7344 3.21717Z" fill="#2B2B2B"/>
<path d="M6.35265 3.66606C6.40697 3.61017 6.49534 3.61017 6.54969 3.66606L6.74673 3.86866C6.80106 3.92454 6.80106 4.01537 6.74673 4.07126C6.7194 4.09933 6.68375 4.11309 6.64808 4.11309C6.61238 4.11309 6.57674 4.09906 6.5494 4.07126L6.35236 3.86866C6.2983 3.81277 6.2983 3.72192 6.35265 3.66606Z" fill="#2B2B2B"/>
<path d="M6.9431 4.27348C6.99743 4.2176 7.08579 4.2176 7.14014 4.27348L7.33719 4.47635C7.39151 4.53224 7.39151 4.62306 7.33719 4.67895C7.30985 4.70703 7.27421 4.72078 7.2385 4.72078C7.20283 4.72078 7.16719 4.70676 7.13985 4.67895L6.94281 4.47608C6.88872 4.42019 6.88872 4.32937 6.9431 4.27348Z" fill="#2B2B2B"/>
<path d="M5.66315 3.91C5.62745 3.91 5.59181 3.89598 5.5645 3.86817L5.36746 3.66557C5.3549 3.65269 5.34624 3.63776 5.33957 3.6223C5.31672 3.56959 5.32563 3.50624 5.36746 3.46297C5.40925 3.4197 5.47112 3.41083 5.52238 3.43433C5.53745 3.44119 5.5522 3.45036 5.56447 3.46297L5.76148 3.66557C5.81583 3.72146 5.81583 3.81228 5.76148 3.86817C5.73449 3.89625 5.69879 3.91 5.66315 3.91Z" fill="#2B2B2B"/>
<path d="M6.25351 4.51845C6.21781 4.51845 6.18217 4.50443 6.15483 4.47662L5.95779 4.27402C5.90347 4.21814 5.90347 4.12731 5.95779 4.07146C6.01214 4.01557 6.10048 4.01557 6.15483 4.07146L6.35187 4.27402C6.40623 4.32991 6.40623 4.42074 6.35187 4.47662C6.32483 4.50443 6.28916 4.51845 6.25351 4.51845Z" fill="#2B2B2B"/>
<path d="M6.84579 5.12603C6.81012 5.12603 6.77448 5.112 6.74714 5.0842L6.5501 4.8816C6.49577 4.82571 6.49577 4.73489 6.5501 4.679C6.60442 4.62311 6.69279 4.62311 6.74714 4.679L6.94418 4.8816C6.99851 4.93748 6.99851 5.02831 6.94418 5.0842C6.91684 5.112 6.8812 5.12603 6.84579 5.12603Z" fill="#2B2B2B"/>
<path d="M0.557378 6.87713L0.975417 6.87713L1.39346 6.87713L1.39346 0.286533C1.39346 0.128374 1.51802 7.78696e-07 1.67213 7.70945e-07L2.88274 7.10055e-07C2.95268 7.06537e-07 3.02015 0.0269398 3.07168 0.0756341L4.07329 1.02384C4.30097 0.964537 4.56072 1.04446 4.72099 1.11152L3.76396 2.0958C3.69483 1.91241 3.63074 1.66196 3.6851 1.4356L2.77377 0.573095L1.9508 0.573095L1.9508 6.87713L16.0246 6.87713L16.4426 6.87713C16.7506 6.87713 17 7.13358 17 7.45022L17 8.02332C17 8.33994 16.7506 8.59641 16.4426 8.59641L16.3805 8.59641L16.2579 8.59641L16.0959 8.59641C16.0536 8.81819 15.9989 9.07323 15.9298 9.36722L15.5397 11.2894C14.9937 13.3669 13.8882 13.7041 12.578 13.7477C12.4512 13.7517 12.323 13.7543 12.1926 13.7543L11.6907 13.7543L4.84639 13.7546C4.84669 13.7532 4.84695 13.752 4.8475 13.7506C4.84721 13.7517 4.84692 13.7532 4.84639 13.7543L4.45791 13.7543C4.29989 13.7543 4.11873 13.744 3.92449 13.7145C3.06751 13.5847 1.95442 13.0821 1.43441 11.4407L0.800409 8.59644L0.635425 8.59644L0.557378 8.59644C0.54231 8.59644 0.528407 8.593 0.513631 8.59186C0.226564 8.56866 1.26493e-06 8.3245 1.21917e-06 8.02335L1.13208e-06 7.45025C2.96942e-05 7.13358 0.249444 6.87713 0.557378 6.87713ZM4.99966 12.8651C4.99966 12.8668 4.9994 12.8688 4.99911 12.8705C4.9994 12.8688 4.99966 12.8668 4.99966 12.8651Z" fill="#2B2B2B"/>
</svg>
