<svg width="32" height="28" viewBox="0 0 32 28" fill="none" xmlns="http://www.w3.org/2000/svg">
<path d="M29.44 13.12L29.44 25.92C29.44 26.6265 30.0134 27.2 30.72 27.2C31.4266 27.2 32 26.6265 32 25.92L32 13.12C32 12.4134 31.4266 11.84 30.72 11.84C30.0134 11.84 29.44 12.4134 29.44 13.12Z" fill="#2B2B2B"/>
<path d="M0 13.1199L32 13.1199L32 24.6399L3.06684e-06 24.6399L0 13.1199Z" fill="#2B2B2B"/>
<path d="M29.4396 2.87995L29.4396 10.5599L26.8796 10.5599L26.8796 9.27995C26.8796 8.57339 26.3061 7.99995 25.5996 7.99995L18.5596 7.99995C17.853 7.99995 17.2796 8.57339 17.2796 9.27995L17.2796 10.5702L14.7196 10.5702L14.7196 9.27995C14.7196 8.57339 14.1461 7.99995 13.4396 7.99995L6.39958 7.99995C5.69302 7.99995 5.11958 8.57339 5.11958 9.27995L5.11958 10.5599L2.55958 10.5599L2.55958 2.87995C2.55958 1.46555 3.70518 0.319947 5.11958 0.319947L26.8796 0.319946C28.294 0.319946 29.4396 1.46555 29.4396 2.87995Z" fill="#2B2B2B"/>
<path d="M0.000425203 13.12L0.00042861 25.92C0.000428798 26.6265 0.573869 27.2 1.28043 27.2C1.98699 27.2 2.56043 26.6265 2.56043 25.92L2.56043 13.12C2.56042 12.4134 1.98698 11.84 1.28042 11.84C0.573865 11.84 0.000425015 12.4134 0.000425203 13.12Z" fill="#2B2B2B"/>
</svg>
