<svg width="31" height="31" viewBox="0 0 31 31" fill="none" xmlns="http://www.w3.org/2000/svg">
<circle cx="15.5" cy="15.5" r="15.5" fill="white" fill-opacity="0.8"/>
<path d="M21.8434 11.1493C21.4768 10.7849 21.0417 10.4959 20.5627 10.2987C20.0837 10.1015 19.5704 10 19.0519 10C18.5335 10 18.0201 10.1015 17.5411 10.2987C17.0621 10.4959 16.627 10.7849 16.2605 11.1493L15.4998 11.9051L14.7392 11.1493C13.9988 10.4137 12.9947 10.0004 11.9477 10.0004C10.9007 10.0004 9.89659 10.4137 9.15626 11.1493C8.41592 11.8849 8 12.8827 8 13.923C8 14.9634 8.41592 15.9611 9.15626 16.6967L9.91691 17.4526L15.4998 23L21.0827 17.4526L21.8434 16.6967C22.21 16.3325 22.5009 15.9001 22.6994 15.4242C22.8979 14.9483 23 14.4382 23 13.923C23 13.4079 22.8979 12.8977 22.6994 12.4218C22.5009 11.9459 22.21 11.5135 21.8434 11.1493V11.1493Z" stroke="#2B2B2B" stroke-linecap="round" stroke-linejoin="round"/>
</svg>
