<svg width="18" height="16" viewBox="0 0 18 16" fill="none" xmlns="http://www.w3.org/2000/svg">
<path d="M16.56 7.61908L16.56 15.2381C16.56 15.6587 16.8826 16 17.28 16C17.6774 16 18 15.6587 18 15.2381L18 7.61908C18 7.19851 17.6774 6.85718 17.28 6.85718C16.8826 6.85718 16.56 7.19851 16.56 7.61908Z" fill="#2B2B2B"/>
<path d="M3.05176e-05 7.61902L18 7.61902L18 14.4762L3.15595e-05 14.4762L3.05176e-05 7.61902Z" fill="#2B2B2B"/>
<path d="M16.56 1.52381L16.56 6.09524L15.12 6.09524L15.12 5.33333C15.12 4.91276 14.7975 4.57143 14.4 4.57143L10.44 4.57143C10.0426 4.57143 9.72003 4.91276 9.72003 5.33334L9.72003 6.10134L8.28003 6.10134L8.28003 5.33334C8.28003 4.91276 7.95747 4.57143 7.56003 4.57143L3.60003 4.57143C3.20259 4.57143 2.88003 4.91276 2.88003 5.33334L2.88003 6.09524L1.44003 6.09524L1.44003 1.52381C1.44003 0.681906 2.08443 7.28074e-07 2.88003 6.88058e-07L15.12 7.24271e-08C15.9156 3.24111e-08 16.56 0.681905 16.56 1.52381Z" fill="#2B2B2B"/>
<path d="M2.61917e-06 7.61908L3.77689e-06 15.2381C3.8408e-06 15.6587 0.322564 16 0.720004 16C1.11744 16 1.44 15.6587 1.44 15.2381L1.44 7.61908C1.44 7.19851 1.11744 6.85718 0.720002 6.85718C0.322562 6.85718 2.55526e-06 7.19851 2.61917e-06 7.61908Z" fill="#2B2B2B"/>
</svg>
