<svg width="16" height="14" viewBox="0 0 16 14" fill="none" xmlns="http://www.w3.org/2000/svg">
<path d="M14.5776 5.69749C14.7172 6.23634 14.7879 6.7911 14.7879 7.35344C14.7879 10.7976 12.1294 13.6415 8.72727 14V10.9476L9.29489 10.6681C9.65416 10.4911 9.79981 10.061 9.62007 9.70716C9.44053 9.35334 9.00359 9.2099 8.64451 9.38691L8 9.70416L7.35549 9.38672C6.99622 9.2099 6.55947 9.35334 6.37993 9.70697C6.20019 10.0608 6.34584 10.4911 6.70512 10.6679L7.27273 10.9476V14C3.87064 13.6415 1.21212 10.7976 1.21212 7.35349C1.21212 6.79114 1.28276 6.23639 1.42235 5.69753C0.551322 5.13084 9.53674e-07 4.15646 9.53674e-07 3.10373C9.53674e-07 1.39238 1.41382 0 3.15152 0C4.09925 0 4.97653 0.413321 5.56781 1.11056C6.34128 0.816948 7.15661 0.668495 8 0.668495C8.84339 0.668495 9.65872 0.816948 10.4322 1.11056C11.0235 0.413321 11.9008 0 12.8485 0C14.5862 0 16 1.39238 16 3.10373C16 4.15646 15.4487 5.13084 14.5776 5.69749ZM5.33333 6.58945C4.93164 6.58945 4.60606 6.91009 4.60606 7.30569C4.60606 7.7013 4.93164 8.02194 5.33333 8.02194C5.73503 8.02194 6.06061 7.7013 6.06061 7.30569C6.06061 6.91009 5.73503 6.58945 5.33333 6.58945ZM10.6667 6.58945C10.265 6.58945 9.93939 6.91009 9.93939 7.30569C9.93939 7.7013 10.265 8.02194 10.6667 8.02194C11.0684 8.02194 11.3939 7.7013 11.3939 7.30569C11.3939 6.91009 11.0684 6.58945 10.6667 6.58945Z" fill="#2B2B2B"/>
<circle cx="5.1" cy="7.1" r="1.1" fill="white"/>
<path fill-rule="evenodd" clip-rule="evenodd" d="M4.91467 3.00006C4.90978 3.00002 4.90489 3 4.9 3C3.85066 3 3 3.85066 3 4.9C3 4.90489 3.00002 4.90978 3.00006 4.91467C2.41743 4.70876 2 4.15313 2 3.5C2 2.67157 2.67157 2 3.5 2C4.15313 2 4.70876 2.41743 4.91467 3.00006Z" fill="white"/>
<path fill-rule="evenodd" clip-rule="evenodd" d="M11 3.00006C11.0049 3.00002 11.0098 3 11.0147 3C12.064 3 12.9147 3.85066 12.9147 4.9C12.9147 4.90489 12.9147 4.90978 12.9146 4.91467C13.4972 4.70876 13.9147 4.15313 13.9147 3.5C13.9147 2.67157 13.2431 2 12.4147 2C11.7615 2 11.2059 2.41743 11 3.00006Z" fill="white"/>
<circle cx="11.1" cy="7.1" r="1.1" fill="white"/>
</svg>
