<svg width="21" height="18" viewBox="0 0 21 18" fill="none" xmlns="http://www.w3.org/2000/svg">
<path d="M18.5647 2.41452C18.1248 1.96607 17.6026 1.61034 17.0279 1.36763C16.4531 1.12492 15.8371 1 15.2149 1C14.5928 1 13.9767 1.12492 13.402 1.36763C12.8272 1.61034 12.305 1.96607 11.8652 2.41452L10.9524 3.34476L10.0396 2.41452C9.15122 1.50912 7.94628 1.00047 6.68988 1.00047C5.43349 1.00047 4.22855 1.50912 3.34014 2.41452C2.45174 3.31992 1.95264 4.5479 1.95264 5.82833C1.95264 7.10875 2.45174 8.33674 3.34014 9.24214L4.25293 10.1724L10.9524 17L17.6519 10.1724L18.5647 9.24214C19.0047 8.79391 19.3538 8.26171 19.5919 7.67596C19.8301 7.0902 19.9526 6.46237 19.9526 5.82833C19.9526 5.19428 19.8301 4.56645 19.5919 3.9807C19.3538 3.39494 19.0047 2.86275 18.5647 2.41452V2.41452Z" stroke="#2B2B2B" stroke-width="2" stroke-linecap="round" stroke-linejoin="round"/>
</svg>
