<svg width="15" height="14" viewBox="0 0 15 14" fill="none" xmlns="http://www.w3.org/2000/svg">
<path d="M12.7275 10.3297V8.56381C12.7275 8.22015 12.4632 7.94055 12.1386 7.94055H2.48641C2.16167 7.94055 1.89746 8.22015 1.89746 8.56381V10.3297C1.89746 10.6734 2.16167 10.953 2.48641 10.953H12.1386C12.4633 10.9529 12.7275 10.6734 12.7275 10.3297Z" fill="#2B2B2B"/>
<path d="M2 7.44465V5.60001C2 5.26914 1.77253 5 1.49292 5H0.506894C0.232067 5 0.00760527 5.25998 0 5.58299C0.0315379 5.90867 0.350348 9.21706 0.398745 10.3837C0.413317 10.735 0.631477 11 0.906197 11H1.19834C1.11675 10.8213 1.07035 10.617 1.07035 10.4V8.69999C1.07035 8.0581 1.47609 7.52652 2 7.44465Z" fill="#2B2B2B"/>
<path d="M2.96702 12C2.7612 12.0338 2.54736 12.0512 2.32843 12.0512H1.8278L1.01837 13.6405C0.940398 13.7936 1.1178 13.9503 1.41449 13.9905C1.46184 13.9969 1.5093 14 1.55607 14C1.80237 14 2.02744 13.9148 2.09298 13.7862L3 12.0051C2.98904 12.0034 2.97792 12.0018 2.96702 12Z" fill="#2B2B2B"/>
<path d="M13 7.44465V5.60001C13 5.26914 13.2275 5 13.5071 5H14.4931C14.7679 5 14.9924 5.25998 15 5.58299C14.9685 5.90867 14.6497 9.21706 14.6013 10.3837C14.5867 10.735 14.3685 11 14.0938 11H13.8017C13.8832 10.8213 13.9297 10.617 13.9297 10.4V8.69999C13.9297 8.0581 13.5239 7.52652 13 7.44465Z" fill="#2B2B2B"/>
<path d="M12.033 12C12.2388 12.0338 12.4526 12.0512 12.6716 12.0512H13.1722L13.9816 13.6405C14.0596 13.7936 13.8822 13.9503 13.5855 13.9905C13.5382 13.9969 13.4907 14 13.4439 14C13.1976 14 12.9726 13.9148 12.907 13.7862L12 12.0051C12.011 12.0034 12.0221 12.0018 12.033 12Z" fill="#2B2B2B"/>
<path fill-rule="evenodd" clip-rule="evenodd" d="M12.2401 0C12.4359 0 12.6259 0.0854003 12.7613 0.234238C12.8866 0.371964 12.952 0.549072 12.9454 0.732881C12.9296 1.17176 12.8559 2.12755 12.7727 3.20596C12.7516 3.47896 12.73 3.75983 12.7085 4.04215C12.1092 4.13595 11.6478 4.68375 11.6478 5.34358V7.24795H2.9772V5.34358C2.9772 4.67577 2.5045 4.12298 1.89464 4.03918C1.79263 2.64574 1.69927 1.28074 1.67956 0.732881C1.67295 0.549072 1.7383 0.371996 1.86357 0.234271C1.99899 0.0853677 2.18899 0 2.38479 0H12.2401Z" fill="#2A2A2A"/>
<circle cx="5" cy="3" r="1" fill="white"/>
<circle cx="10" cy="3" r="1" fill="white"/>
<circle cx="7.5" cy="5.5" r="0.5" fill="white"/>
</svg>
