<svg width="111" height="73" viewBox="0 0 111 73" fill="none" xmlns="http://www.w3.org/2000/svg">
<path d="M81.6173 62.5336C82.7061 62.5607 83.8388 62.4052 84.894 62.7432C86.2998 63.2467 86.3335 65.5785 84.9547 66.1362C83.886 66.5113 82.723 66.3254 81.6139 66.3693C81.6105 65.0885 81.6173 63.8111 81.6173 62.5336Z" fill="#F6F5F0"/>
<path d="M26.7016 63.2671C27.2477 64.656 27.8073 66.0383 28.3669 67.4238C27.2544 67.434 26.142 67.434 25.0295 67.4238C25.5857 66.0383 26.1453 64.6527 26.7016 63.2671Z" fill="#F6F5F0"/>
<path d="M101.682 67.4237C102.235 66.0348 102.798 64.6492 103.348 63.2568C103.894 64.6492 104.46 66.0348 105.016 67.4271C103.904 67.4339 102.791 67.4305 101.682 67.4237Z" fill="#F6F5F0"/>
<path d="M52.248 3.23753C53.2021 2.05472 54.3516 1.05439 55.4405 0C57.5373 2.12906 59.5701 4.46089 60.6118 7.31654C61.3332 9.15835 61.5726 11.1421 61.667 13.1089C64.465 11.6051 67.644 11.0745 70.7926 11.2063C70.7825 13.9741 71.0252 16.8264 70.0813 19.486C68.4294 24.7782 63.7672 28.9282 58.3531 30.0164C59.324 33.5108 62.1187 36.407 65.5539 37.5323C67.2091 38.1474 68.9924 38.2049 70.7353 38.188C70.9106 39.5397 70.9308 40.9084 70.8297 42.2703C64.5392 42.9665 58.1138 39.4248 55.3326 33.7304C53.4448 37.2823 50.3029 40.1886 46.4733 41.4795C44.3461 42.294 42.0504 42.3717 39.8052 42.3075C39.758 40.9726 39.6063 39.6107 39.8794 38.2927C41.6728 38.0764 43.5404 38.188 45.2462 37.4783C48.6342 36.309 51.2266 33.4128 52.3391 30.0367C47.3666 29.0296 42.9842 25.5352 41.0222 20.8276C39.6535 17.8132 39.731 14.4472 39.7883 11.2097C41.4941 11.2367 43.2269 11.1827 44.899 11.5814C46.3351 11.9194 47.6869 12.5277 49.0421 13.1056C48.8836 9.56389 50.0871 6.02897 52.248 3.23753ZM53.3942 9.83762C52.4941 13.2002 53.3436 16.8433 55.3528 19.6414C56.5058 17.7895 57.4868 15.7517 57.5576 13.528C57.8475 10.8379 56.8496 8.25265 55.518 5.97151C54.2033 6.813 53.8122 8.43177 53.3942 9.83762ZM43.8573 15.478C44.1 17.5529 44.7102 19.6178 45.971 21.3075C47.5655 23.636 50.0804 25.1838 52.7672 25.9306C52.5312 20.9425 48.678 16.5695 43.8573 15.478ZM62.2097 17.6476C59.651 19.6178 58.0868 22.7201 57.8306 25.9306C60.2578 25.2547 62.5637 23.9672 64.1549 21.9733C65.7123 20.1484 66.518 17.803 66.7641 15.4374C65.1662 15.9849 63.5379 16.5661 62.2097 17.6476Z" fill="#C7A27B"/>
<path d="M39.7849 30.6923C41.0895 30.6214 42.3874 30.422 43.6314 30.0131C44.727 30.7059 45.8091 31.4122 46.8812 32.1455C45.1349 34.1766 42.3571 34.7578 39.795 34.5111C39.758 33.2371 39.758 31.9664 39.7849 30.6923Z" fill="#C7A27B"/>
<path d="M63.9829 32.4395C64.3537 31.1519 66.0966 30.7869 67.1147 30.0096C68.2777 30.4591 69.5183 30.6348 70.7589 30.6686C70.8701 31.9326 70.8904 33.2032 70.8364 34.4739C68.4092 34.7375 65.7426 34.2644 63.9829 32.4395Z" fill="#C7A27B"/>
<path d="M45.1956 45.6362C49.0016 44.6799 52.5716 42.7874 55.3191 39.9587C57.5204 42.1588 60.1566 43.9837 63.1435 44.9097C63.8784 45.1597 64.6571 45.3186 65.3381 45.7072C65.5538 46.89 65.8033 48.2925 65.1695 49.3841C63.6525 49.6004 62.1759 48.8602 60.7634 48.3837C58.7981 47.6335 56.9945 46.525 55.2651 45.3389C52.4266 47.4003 49.1398 49.1441 45.6035 49.4652C44.7101 48.4412 45.2765 46.8833 45.1956 45.6362Z" fill="#C7A27B"/>
<path d="M0.00220268 59.6137C1.02365 59.6103 2.04174 59.6103 3.06319 59.6069C4.9881 61.932 6.90628 64.2605 8.82782 66.5889C8.82782 64.2638 8.83794 61.9421 8.81771 59.6171C10.0279 59.6036 11.2415 59.6036 12.4552 59.6171C12.4653 63.9833 12.4518 68.353 12.4619 72.7226C11.4337 72.7226 10.4089 72.726 9.38406 72.7226C7.48948 70.3908 5.55782 68.0894 3.64639 65.7677C3.63291 68.0894 3.6464 70.4111 3.63965 72.7328C2.42942 72.726 1.21581 72.7193 0.00557195 72.7294C-0.00454143 68.3597 0.00220268 63.9867 0.00220268 59.6137Z" fill="#021B2F"/>
<path d="M24.8879 59.6138C26.115 59.607 27.3387 59.607 28.5658 59.6104C30.4839 63.9868 32.4291 68.3531 34.354 72.7261C33.0629 72.7227 31.7751 72.7227 30.4839 72.7295C30.1434 71.8812 29.7996 71.033 29.4591 70.1847C27.6218 70.1915 25.7812 70.1949 23.9439 70.1813C23.6001 71.0262 23.2562 71.8778 22.9157 72.7261C21.6482 72.7227 20.3807 72.7227 19.1165 72.7261C21.038 68.3564 22.9798 63.9935 24.8879 59.6138ZM26.7015 63.267C26.1453 64.6525 25.5857 66.0381 25.0294 67.4237C26.1419 67.4338 27.2544 67.4338 28.3669 67.4237C27.8073 66.0381 27.2476 64.6559 26.7015 63.267Z" fill="#021B2F"/>
<path d="M39.0972 59.6138C43.0077 59.6037 46.9182 59.6071 50.8287 59.6138C50.8253 60.5939 50.8287 61.5739 50.8354 62.5573C49.4971 62.5573 48.1621 62.5573 46.8272 62.5607C46.8204 65.9469 46.8339 69.3365 46.8238 72.7261C45.5832 72.7261 44.346 72.7228 43.1088 72.7261C43.1088 69.3365 43.1122 65.9469 43.1055 62.5573C41.7671 62.5573 40.4321 62.5506 39.0938 62.5607C39.0972 61.5773 39.0972 60.5939 39.0972 59.6138Z" fill="#021B2F"/>
<path d="M57.4867 59.6104C58.7239 59.607 59.9611 59.607 61.1983 59.6104C61.2084 62.0605 61.1815 64.514 61.2084 66.9675C61.2219 67.9712 61.4815 69.1608 62.4625 69.6575C63.4806 70.1205 64.9133 70.0056 65.5909 69.0256C66.1505 68.228 66.1235 67.2041 66.137 66.2747C66.1235 64.0544 66.1336 61.8375 66.1303 59.6172C67.3506 59.6036 68.571 59.6104 69.7913 59.6036C69.7947 62.0537 69.8115 64.5005 69.7947 66.9506C69.7981 68.6167 69.3194 70.3841 68.0451 71.5331C66.5449 72.8883 64.384 73.1621 62.449 72.9221C60.9522 72.7498 59.4622 72.0536 58.5789 70.7964C57.7699 69.6913 57.4867 68.2922 57.4867 66.9438C57.4833 64.5005 57.4901 62.0537 57.4867 59.6104Z" fill="#021B2F"/>
<path d="M77.9023 59.6138C80.1879 59.6206 82.4769 59.5631 84.7625 59.6442C86.8863 59.7355 89.1248 61.0602 89.5866 63.2603C90.1462 65.3691 89.1214 67.6569 87.1931 68.6505C88.1067 70.0158 89.0405 71.3676 89.9709 72.7262C88.6427 72.7262 87.3178 72.7262 85.9896 72.7262C85.194 71.567 84.4119 70.4045 83.6231 69.2419C82.9522 69.2419 82.2814 69.2419 81.6139 69.2419C81.6173 70.4045 81.6173 71.567 81.6173 72.7295C80.3767 72.7228 79.1395 72.7261 77.9023 72.7295C77.9057 68.3599 77.9023 63.9869 77.9023 59.6138ZM81.6173 62.5337C81.6173 63.8111 81.6105 65.0886 81.6139 66.3694C82.723 66.3254 83.886 66.5113 84.9547 66.1362C86.3335 65.5786 86.2998 63.2468 84.894 62.7432C83.8388 62.4053 82.7061 62.5607 81.6173 62.5337Z" fill="#021B2F"/>
<path d="M101.537 59.6204C102.758 59.6103 103.975 59.6069 105.195 59.6069C107.15 63.9732 109.065 68.353 111 72.726C109.712 72.7193 108.424 72.7159 107.14 72.7328C106.796 71.8845 106.452 71.0397 106.119 70.1914C104.275 70.1779 102.431 70.1948 100.587 70.1847C100.243 71.0329 99.8989 71.8778 99.5584 72.726C98.2942 72.7226 97.0334 72.726 95.7692 72.726C97.684 68.353 99.6191 63.9901 101.537 59.6204ZM101.682 67.4236C102.791 67.4304 103.904 67.4338 105.016 67.427C104.46 66.0347 103.894 64.6491 103.348 63.2568C102.798 64.6491 102.235 66.0347 101.682 67.4236Z" fill="#021B2F"/>
</svg>
