<svg width="20" height="20" viewBox="0 0 20 20" fill="none" xmlns="http://www.w3.org/2000/svg">
<path fill-rule="evenodd" clip-rule="evenodd" d="M13.9387 4.88943C13.9387 5.52191 14.4516 6.03468 15.0843 6.03468C15.717 6.03468 16.2298 5.52191 16.2298 4.88943C16.2298 4.25691 15.717 3.74414 15.0843 3.74414C14.4516 3.74414 13.9387 4.25691 13.9387 4.88943ZM6.80505 9.98405C6.80505 8.22704 8.22978 6.80273 9.98723 6.80273C11.7447 6.80273 13.1694 8.22704 13.1694 9.98405C13.1694 11.741 11.7447 13.1653 9.98723 13.1653C8.22978 13.1653 6.80505 11.741 6.80505 9.98405ZM17.7368 2.26566C17.3527 1.88076 16.9869 1.64238 16.4745 1.44287C16.0877 1.29221 15.5064 1.11305 14.436 1.06411C13.2784 1.0112 12.9312 1 9.99998 1C7.06873 1 6.72152 1.0112 5.5639 1.06411C4.49358 1.11305 3.9123 1.29221 3.52547 1.44287C3.01303 1.64238 2.64735 1.88076 2.26319 2.26566C1.87904 2.65056 1.64113 3.01699 1.44197 3.5304C1.29164 3.91799 1.11283 4.50044 1.06399 5.57284C1.01118 6.73268 1 7.08057 1 10.0175C1 12.9546 1.01118 13.3024 1.06399 14.4623C1.11283 15.5347 1.29164 16.1171 1.44197 16.5047C1.64113 17.0181 1.87904 17.3846 2.26319 17.7695C2.64735 18.1544 3.01303 18.3927 3.52547 18.5923C3.9123 18.7429 4.49358 18.9221 5.56393 18.971C6.72136 19.0239 7.06853 19.0351 9.99998 19.0351C12.9314 19.0351 13.2786 19.0239 14.436 18.971C15.5064 18.9221 16.0877 18.7429 16.4745 18.5923C16.9869 18.3927 17.3527 18.1544 17.7368 17.7694C18.1209 17.3846 18.3589 17.0181 18.558 16.5047C18.7083 16.1171 18.8872 15.5347 18.936 14.4623C18.9888 13.3024 19 12.9546 19 10.0175C19 7.08057 18.9888 6.73268 18.936 5.57284C18.8872 4.50044 18.7083 3.91799 18.558 3.5304C18.3589 3.01699 18.1209 2.65056 17.7368 2.26566Z" fill="white"/>
<path d="M16.4745 1.44287L16.2931 1.90879L16.2931 1.90879L16.4745 1.44287ZM14.436 1.06411L14.4589 0.564632L14.4589 0.564631L14.436 1.06411ZM5.5639 1.06411L5.54107 0.564631L5.54106 0.564632L5.5639 1.06411ZM3.52547 1.44287L3.70687 1.9088L3.70693 1.90878L3.52547 1.44287ZM1.44197 3.5304L0.975814 3.34956L0.9758 3.34959L1.44197 3.5304ZM1.06399 5.57284L0.564503 5.55009L0.564503 5.5501L1.06399 5.57284ZM1.06399 14.4623L0.564502 14.485L0.564503 14.485L1.06399 14.4623ZM1.44197 16.5047L0.9758 16.6855L0.975814 16.6856L1.44197 16.5047ZM3.52547 18.5923L3.70688 18.1263L3.70687 18.1263L3.52547 18.5923ZM5.56393 18.971L5.5411 19.4705H5.5411L5.56393 18.971ZM14.436 18.971L14.4589 19.4705H14.4589L14.436 18.971ZM16.4745 18.5923L16.6559 19.0582L16.656 19.0582L16.4745 18.5923ZM17.7368 17.7694L17.3829 17.4162L17.3829 17.4162L17.7368 17.7694ZM18.558 16.5047L19.0242 16.6855V16.6855L18.558 16.5047ZM18.936 14.4623L19.4355 14.485V14.485L18.936 14.4623ZM18.936 5.57284L19.4355 5.5501V5.55009L18.936 5.57284ZM18.558 3.5304L19.0242 3.34959V3.34959L18.558 3.5304ZM15.0843 5.53468C14.7276 5.53468 14.4387 5.24565 14.4387 4.88943H13.4387C13.4387 5.79817 14.1756 6.53468 15.0843 6.53468V5.53468ZM15.7298 4.88943C15.7298 5.24565 15.4409 5.53468 15.0843 5.53468V6.53468C15.993 6.53468 16.7298 5.79817 16.7298 4.88943H15.7298ZM15.0843 4.24414C15.4409 4.24414 15.7298 4.53315 15.7298 4.88943H16.7298C16.7298 3.98066 15.993 3.24414 15.0843 3.24414V4.24414ZM14.4387 4.88943C14.4387 4.53316 14.7276 4.24414 15.0843 4.24414V3.24414C14.1756 3.24414 13.4387 3.98066 13.4387 4.88943H14.4387ZM9.98723 6.30273C7.95377 6.30273 6.30505 7.95077 6.30505 9.98405H7.30505C7.30505 8.50331 8.50579 7.30273 9.98723 7.30273V6.30273ZM13.6694 9.98405C13.6694 7.95077 12.0207 6.30273 9.98723 6.30273V7.30273C11.4687 7.30273 12.6694 8.50331 12.6694 9.98405H13.6694ZM9.98723 13.6653C12.0207 13.6653 13.6694 12.0173 13.6694 9.98405H12.6694C12.6694 11.4647 11.4687 12.6653 9.98723 12.6653V13.6653ZM6.30505 9.98405C6.30505 12.0173 7.95377 13.6653 9.98723 13.6653V12.6653C8.50579 12.6653 7.30505 11.4647 7.30505 9.98405H6.30505ZM18.0907 1.91247C17.6569 1.47784 17.2323 1.20135 16.656 0.976943L16.2931 1.90879C16.7416 2.08341 17.0484 2.28367 17.3828 2.61885L18.0907 1.91247ZM16.656 0.976951C16.2192 0.806872 15.5844 0.616092 14.4589 0.564632L14.4132 1.56359C15.4283 1.61 15.9561 1.77754 16.2931 1.90879L16.656 0.976951ZM14.4589 0.564631C13.2897 0.511192 12.9334 0.5 9.99998 0.5V1.5C12.9291 1.5 13.2672 1.51121 14.4132 1.56359L14.4589 0.564631ZM9.99998 0.5C7.06658 0.5 6.71028 0.511192 5.54107 0.564631L5.58672 1.56359C6.73275 1.51121 7.07087 1.5 9.99998 1.5V0.5ZM5.54106 0.564632C4.41552 0.616092 3.78072 0.806871 3.34401 0.976958L3.70693 1.90878C4.04388 1.77754 4.57163 1.61 5.58673 1.56359L5.54106 0.564632ZM3.34406 0.976938C2.76766 1.20136 2.34305 1.47785 1.9093 1.91245L2.61709 2.61887C2.95164 2.28367 3.25839 2.08341 3.70687 1.9088L3.34406 0.976938ZM1.9093 1.91245C1.47554 2.34706 1.19971 2.7724 0.975814 3.34956L1.90812 3.71123C2.08255 3.26159 2.28255 2.95406 2.61709 2.61887L1.9093 1.91245ZM0.9758 3.34959C0.806187 3.78691 0.615848 4.42269 0.564503 5.55009L1.56347 5.59559C1.6098 4.57818 1.77709 4.04906 1.90813 3.7112L0.9758 3.34959ZM0.564503 5.5501C0.51117 6.72149 0.5 7.07843 0.5 10.0175H1.5C1.5 7.08271 1.51119 6.74387 1.56347 5.59558L0.564503 5.5501ZM0.5 10.0175C0.5 12.9567 0.51117 13.3136 0.564502 14.485L1.56347 14.4395C1.51119 13.2912 1.5 12.9524 1.5 10.0175H0.5ZM0.564503 14.485C0.615848 15.6124 0.806187 16.2482 0.9758 16.6855L1.90813 16.3239C1.77709 15.9861 1.6098 15.4569 1.56347 14.4395L0.564503 14.485ZM0.975814 16.6856C1.19971 17.2627 1.47554 17.6881 1.9093 18.1227L2.61709 17.4163C2.28255 17.0811 2.08255 16.7735 1.90812 16.3239L0.975814 16.6856ZM1.9093 18.1227C2.34305 18.5573 2.76766 18.8338 3.34406 19.0582L3.70687 18.1263C3.25839 17.9517 2.95164 17.7515 2.61709 17.4163L1.9093 18.1227ZM3.34405 19.0582C3.78072 19.2282 4.4155 19.419 5.5411 19.4705L5.58677 18.4715C4.57165 18.4251 4.04389 18.2576 3.70688 18.1263L3.34405 19.0582ZM5.5411 19.4705C6.71012 19.5239 7.06638 19.5351 9.99998 19.5351V18.5351C7.07067 18.5351 6.73259 18.5239 5.58677 18.4715L5.5411 19.4705ZM9.99998 19.5351C12.9336 19.5351 13.2898 19.5239 14.4589 19.4705L14.4132 18.4715C13.2674 18.5239 12.9293 18.5351 9.99998 18.5351V19.5351ZM14.4589 19.4705C15.5845 19.419 16.2192 19.2282 16.6559 19.0582L16.2931 18.1263C15.9561 18.2576 15.4283 18.4251 14.4132 18.4715L14.4589 19.4705ZM16.656 19.0582C17.2323 18.8338 17.657 18.5573 18.0907 18.1226L17.3829 17.4162C17.0484 17.7515 16.7416 17.9517 16.2931 18.1263L16.656 19.0582ZM18.0907 18.1226C18.5244 17.6881 18.8003 17.2627 19.0242 16.6855L18.0918 16.3239C17.9174 16.7735 17.7174 17.0811 17.3829 17.4162L18.0907 18.1226ZM19.0242 16.6855C19.1938 16.2482 19.3842 15.6125 19.4355 14.485L18.4365 14.4395C18.3902 15.4569 18.2229 15.9861 18.0918 16.3239L19.0242 16.6855ZM19.4355 14.485C19.4888 13.3136 19.5 12.9567 19.5 10.0175H18.5C18.5 12.9524 18.4888 13.2912 18.4365 14.4395L19.4355 14.485ZM19.5 10.0175C19.5 7.07843 19.4888 6.72149 19.4355 5.5501L18.4365 5.59558C18.4888 6.74387 18.5 7.08271 18.5 10.0175H19.5ZM19.4355 5.55009C19.3842 4.42267 19.1938 3.78689 19.0242 3.34959L18.0918 3.7112C18.2229 4.04908 18.3902 4.5782 18.4365 5.59559L19.4355 5.55009ZM19.0242 3.34959C18.8003 2.77239 18.5244 2.34704 18.0907 1.91245L17.3829 2.61887C17.7174 2.95408 17.9174 3.2616 18.0918 3.7112L19.0242 3.34959Z" fill="#2B2B2B"/>
</svg>
