<svg width="30" height="17" viewBox="0 0 30 17" fill="none" xmlns="http://www.w3.org/2000/svg">
<path fill-rule="evenodd" clip-rule="evenodd" d="M14.6996 15.9369H16.3734C16.3734 15.9369 16.8786 15.8849 17.1367 15.6241C17.3749 15.3836 17.367 14.9333 17.367 14.9333C17.367 14.9333 17.3344 12.8249 18.3764 12.5139C19.4037 12.2075 20.7235 14.5517 22.1215 15.4532C23.1793 16.1356 23.9831 15.9861 23.9831 15.9861L27.7222 15.9369C27.7222 15.9369 29.6778 15.8237 28.7504 14.38C28.6743 14.2621 28.2096 13.3114 25.9703 11.359C23.6252 9.31553 23.9396 9.64604 26.7642 6.11067C28.4835 3.95862 29.1716 2.644 28.9561 2.08139C28.7514 1.54477 27.4869 1.68681 27.4869 1.68681L23.2762 1.71095C23.2762 1.71095 22.9638 1.67103 22.7325 1.80101C22.5071 1.9282 22.3617 2.22529 22.3617 2.22529C22.3617 2.22529 21.6944 3.89085 20.8066 5.3076C18.9321 8.29707 18.1817 8.4549 17.8752 8.26922C17.1624 7.83658 17.3403 6.53217 17.3403 5.60469C17.3403 2.70713 17.809 1.49928 16.4298 1.1864C15.972 1.08335 15.6349 1.01465 14.4643 1.00351C12.9626 0.988652 11.6911 1.00722 10.9714 1.33866C10.4919 1.55869 10.1221 2.04982 10.3476 2.07767C10.6254 2.11295 11.2561 2.23736 11.5903 2.66443C12.0213 3.2159 12.0065 4.45347 12.0065 4.45347C12.0065 4.45347 12.2547 7.8635 11.4272 8.28778C10.8597 8.57745 10.0816 7.98512 8.40978 5.27232C7.55361 3.88342 6.90702 2.34784 6.90702 2.34784C6.90702 2.34784 6.78245 2.06096 6.56 1.90685C6.2901 1.72116 5.91342 1.66175 5.91342 1.66175L1.91233 1.68681C1.91233 1.68681 1.31221 1.7026 1.09174 1.9477C0.894997 2.16587 1.07592 2.61708 1.07592 2.61708C1.07592 2.61708 4.20799 9.49843 7.7543 12.966C11.007 16.1458 14.6996 15.9369 14.6996 15.9369Z" fill="white"/>
<path d="M14.6996 15.9369H16.3734C16.3734 15.9369 16.8786 15.8849 17.1367 15.6241C17.3749 15.3836 17.367 14.9333 17.367 14.9333C17.367 14.9333 17.3344 12.8249 18.3764 12.5139C19.4037 12.2075 20.7235 14.5517 22.1215 15.4532C23.1793 16.1356 23.9831 15.9861 23.9831 15.9861L27.7222 15.9369C27.7222 15.9369 29.6778 15.8237 28.7504 14.38C28.6743 14.2621 28.2096 13.3114 25.9703 11.359C23.6252 9.31553 23.9396 9.64604 26.7642 6.11067C28.4835 3.95862 29.1716 2.644 28.9561 2.08139C28.7514 1.54477 27.4869 1.68681 27.4869 1.68681L23.2762 1.71095C23.2762 1.71095 22.9638 1.67103 22.7325 1.80101C22.5071 1.9282 22.3617 2.22529 22.3617 2.22529C22.3617 2.22529 21.6944 3.89085 20.8066 5.3076C18.9321 8.29707 18.1817 8.4549 17.8752 8.26922C17.1624 7.83658 17.3403 6.53217 17.3403 5.60469C17.3403 2.70713 17.809 1.49928 16.4298 1.1864C15.972 1.08335 15.6349 1.01465 14.4643 1.00351C12.9626 0.988652 11.6911 1.00722 10.9714 1.33866C10.4919 1.55869 10.1221 2.04982 10.3476 2.07767C10.6254 2.11295 11.2561 2.23736 11.5903 2.66443C12.0213 3.2159 12.0065 4.45347 12.0065 4.45347C12.0065 4.45347 12.2547 7.8635 11.4272 8.28778C10.8597 8.57745 10.0816 7.98512 8.40978 5.27232C7.5536 3.88342 6.90702 2.34784 6.90702 2.34784C6.90702 2.34784 6.78245 2.06096 6.56 1.90685C6.2901 1.72116 5.91342 1.66175 5.91342 1.66175L1.91233 1.68681C1.91233 1.68681 1.31221 1.7026 1.09174 1.9477C0.894997 2.16587 1.07592 2.61708 1.07592 2.61708C1.07592 2.61708 4.20799 9.49843 7.7543 12.966C11.007 16.1458 14.6996 15.9369 14.6996 15.9369" stroke="#2B2B2B"/>
</svg>
